# xmcd
#
# Track frame offsets:
#	150
#	21257
#	41912
#	55705
#	70977
#	88682
#	109985
#	130817
#	147040
#	170265
#
# Disc length: 2635 seconds
#
# Revision: 0
# Processed by: cddbd v1.5.2PL0 Copyright (c) Steve Scherf et al.
# Submitted via: EasyCDDAExtractor 12.0.1.1
#
DISCID=890a490a
DTITLE=Michael Bublé - Meets Madison Square Garden
DYEAR=2009
DGENRE=Easy Listening
TTITLE0=I'm Your Man
TTITLE1=Me And Mrs Jones
TTITLE2=Call Me Irresponsible
TTITLE3=I've Got The World On A String
TTITLE4=Lost
TTITLE5=Feeling Good
TTITLE6=Home
TTITLE7=Everything
TTITLE8=Crazy Little Thing Called Love
TTITLE9=Song For You
EXTD=
EXTT0=
EXTT1=
EXTT2=
EXTT3=
EXTT4=
EXTT5=
EXTT6=
EXTT7=
EXTT8=
EXTT9=
PLAYORDER=
